<?xml version="1.0" encoding="UTF-8" standalone="no"?>
<svg
   xmlns:dc="http://purl.org/dc/elements/1.1/"
   xmlns:cc="http://creativecommons.org/ns#"
   xmlns:rdf="http://www.w3.org/1999/02/22-rdf-syntax-ns#"
   xmlns:svg="http://www.w3.org/2000/svg"
   xmlns="http://www.w3.org/2000/svg"
   xmlns:sodipodi="http://sodipodi.sourceforge.net/DTD/sodipodi-0.dtd"
   xmlns:inkscape="http://www.inkscape.org/namespaces/inkscape"
   version="1.1"
   x="0px"
   y="0px"
   width="60"
   height="60"
   viewBox="0 0 60 60"
   enable-background="new 0 0 100 100"
   xml:space="preserve"
   id="svg2"
   inkscape:version="0.48.5 r10040"
   sodipodi:docname="icon_13721.svg"
   inkscape:export-filename="/home/aubry/Dropbox/workspace/filpilote/src/icon-512.png"
   inkscape:export-xdpi="768"
   inkscape:export-ydpi="768"><metadata
     id="metadata136"><rdf:RDF><cc:Work
         rdf:about=""><dc:format>image/svg+xml</dc:format><dc:type
           rdf:resource="http://purl.org/dc/dcmitype/StillImage" /><dc:title></dc:title></cc:Work></rdf:RDF></metadata><defs
     id="defs134" /><sodipodi:namedview
     pagecolor="#000000"
     bordercolor="#666666"
     borderopacity="1"
     objecttolerance="10"
     gridtolerance="10"
     guidetolerance="10"
     inkscape:pageopacity="0"
     inkscape:pageshadow="2"
     inkscape:window-width="1920"
     inkscape:window-height="1026"
     id="namedview132"
     showgrid="false"
     inkscape:zoom="5.06"
     inkscape:cx="-25.6917"
     inkscape:cy="50"
     inkscape:window-x="0"
     inkscape:window-y="0"
     inkscape:window-maximized="1"
     inkscape:current-layer="svg2" /><g
     id="g3772"
     transform="matrix(0.44855818,0,0,0.44855818,1.2922758,30.897116)"><path
       transform="matrix(1.3031791,0,0,1.3031791,-0.77263383,-66.772634)"
       d="m 98.814228,49.703556 c 0,27.123075 -21.987597,49.110672 -49.110672,49.110672 -27.123075,0 -49.11067194,-21.987597 -49.11067194,-49.110672 0,-27.123075 21.98759694,-49.11067194 49.11067194,-49.11067194 27.123075,0 49.110672,21.98759694 49.110672,49.11067194 z"
       sodipodi:ry="49.110672"
       sodipodi:rx="49.110672"
       sodipodi:cy="49.703556"
       sodipodi:cx="49.703556"
       id="path3962"
       style="fill:#ffffff;fill-opacity:1;stroke:#000000;stroke-opacity:1"
       sodipodi:type="arc" /><g
       transform="matrix(1.1984928,0,0,1.1984928,3.9771541,-59.175975)"
       style="stroke:#000000;stroke-width:3;stroke-miterlimit:4;stroke-opacity:1;stroke-dasharray:none"
       id="g3964"><path
         inkscape:connector-curvature="0"
         style="fill:#000000;stroke:#000000;stroke-width:3;stroke-miterlimit:4;stroke-opacity:1;stroke-dasharray:none"
         id="path114"
         d="m 29.723569,24.314174 c -0.34,0 -0.672,-0.169 -0.864,-0.48 -0.084,-0.137 -0.169,-0.268 -0.251,-0.396 -0.555,-0.866 -1.129,-1.76 -1.129,-3.104 0,-1.576 0.822,-2.837 1.547,-3.948 0.609,-0.935 1.185,-1.817 1.185,-2.731 0,-0.87 -0.631,-1.876 -1.223,-2.75 -0.314,-0.465 -0.192,-1.0970005 0.273,-1.4110001 0.465,-0.314 1.096,-0.192 1.41,0.273 0.76,1.1240001 1.571,2.4440001 1.571,3.8880001 0,1.518 -0.805,2.752 -1.515,3.841 -0.625,0.959 -1.218,1.866 -1.218,2.838 0,0.749 0.321,1.249 0.808,2.007 0.087,0.137 0.177,0.277 0.268,0.422 0.296,0.477 0.149,1.104 -0.327,1.399 -0.166,0.102 -0.352,0.152 -0.535,0.152 z" /><path
         inkscape:connector-curvature="0"
         style="fill:#000000;stroke:#000000;stroke-width:3;stroke-miterlimit:4;stroke-opacity:1;stroke-dasharray:none"
         id="path116"
         d="m 41.128569,24.314174 c -0.34,0 -0.672,-0.171 -0.864,-0.48 -0.087,-0.14 -0.173,-0.273 -0.255,-0.402 -0.554,-0.865 -1.125,-1.757 -1.125,-3.098 0,-1.576 0.821,-2.836 1.546,-3.948 0.609,-0.935 1.185,-1.817 1.185,-2.731 0,-0.87 -0.631,-1.876 -1.222,-2.75 -0.314,-0.465 -0.192,-1.0970005 0.272,-1.4110001 0.466,-0.314 1.097,-0.192 1.411,0.273 0.76,1.1240001 1.57,2.4440001 1.57,3.8880001 0,1.518 -0.804,2.752 -1.514,3.841 -0.627,0.959 -1.217,1.866 -1.217,2.838 0,0.745 0.32,1.244 0.803,2.001 0.09,0.138 0.182,0.28 0.273,0.429 0.295,0.477 0.148,1.103 -0.329,1.398 -0.167,0.102 -0.351,0.152 -0.534,0.152 z" /><path
         inkscape:connector-curvature="0"
         style="fill:#000000;stroke:#000000;stroke-width:3;stroke-miterlimit:4;stroke-opacity:1;stroke-dasharray:none"
         id="path118"
         d="m 52.532569,24.314174 c -0.338,0 -0.671,-0.169 -0.863,-0.48 -0.086,-0.137 -0.17,-0.269 -0.254,-0.398 -0.554,-0.866 -1.128,-1.76 -1.128,-3.103 0,-1.576 0.821,-2.837 1.548,-3.948 0.609,-0.935 1.185,-1.817 1.185,-2.731 0,-0.87 -0.631,-1.876 -1.223,-2.75 -0.314,-0.465 -0.192,-1.0970005 0.272,-1.4110001 0.465,-0.314 1.096,-0.192 1.41,0.273 0.76,1.1240001 1.572,2.4440001 1.572,3.8880001 0,1.518 -0.805,2.752 -1.516,3.841 -0.625,0.959 -1.217,1.866 -1.217,2.838 0,0.747 0.32,1.247 0.807,2.004 0.088,0.137 0.178,0.279 0.27,0.425 0.295,0.477 0.148,1.104 -0.328,1.399 -0.166,0.103 -0.351,0.153 -0.535,0.153 z" /><path
         inkscape:connector-curvature="0"
         style="fill:#000000;stroke:#000000;stroke-width:3;stroke-miterlimit:4;stroke-opacity:1;stroke-dasharray:none"
         id="path120"
         d="m 63.938569,24.314174 c -0.34,0 -0.672,-0.169 -0.865,-0.48 -0.086,-0.137 -0.17,-0.269 -0.254,-0.399 -0.553,-0.865 -1.127,-1.759 -1.127,-3.101 0,-1.576 0.82,-2.837 1.547,-3.948 0.609,-0.935 1.184,-1.817 1.184,-2.731 0,-0.87 -0.631,-1.876 -1.221,-2.75 -0.314,-0.465 -0.193,-1.0970005 0.273,-1.4110001 0.463,-0.314 1.094,-0.192 1.41,0.273 0.758,1.1240001 1.568,2.4440001 1.568,3.8880001 0,1.518 -0.803,2.752 -1.514,3.841 -0.627,0.959 -1.217,1.866 -1.217,2.838 0,0.747 0.32,1.247 0.807,2.004 0.088,0.137 0.18,0.278 0.27,0.425 0.295,0.477 0.15,1.104 -0.328,1.399 -0.164,0.102 -0.349,0.152 -0.533,0.152 z" /><path
         inkscape:connector-curvature="0"
         style="fill:#000000;stroke:#000000;stroke-width:3;stroke-miterlimit:4;stroke-opacity:1;stroke-dasharray:none"
         id="path122"
         d="m 26.782569,86.094174 c -2.115,0 -3.83,-1.134 -3.83,-2.534 v -47.744 c 0,-1.399 1.714,-2.534 3.83,-2.534 2.114,0 3.829,1.135 3.829,2.534 v 47.744 c 0,1.401 -1.715,2.534 -3.829,2.534" /><path
         inkscape:connector-curvature="0"
         style="fill:#000000;stroke:#000000;stroke-width:3;stroke-miterlimit:4;stroke-opacity:1;stroke-dasharray:none"
         id="path124"
         d="m 40.739569,86.094174 c -2.115,0 -3.831,-1.134 -3.831,-2.534 v -47.744 c 0,-1.399 1.716,-2.534 3.831,-2.534 2.114,0 3.831,1.135 3.831,2.534 v 47.744 c 0,1.401 -1.717,2.534 -3.831,2.534" /><path
         inkscape:connector-curvature="0"
         style="fill:#000000;stroke:#000000;stroke-width:3;stroke-miterlimit:4;stroke-opacity:1;stroke-dasharray:none"
         id="path126"
         d="m 54.696569,86.094174 c -2.113,0 -3.829,-1.134 -3.829,-2.534 v -47.744 c 0,-1.399 1.715,-2.534 3.829,-2.534 2.117,0 3.83,1.135 3.83,2.534 v 47.744 c 0,1.401 -1.713,2.534 -3.83,2.534" /><path
         inkscape:connector-curvature="0"
         style="fill:#000000;stroke:#000000;stroke-width:3;stroke-miterlimit:4;stroke-opacity:1;stroke-dasharray:none"
         id="path128"
         d="m 68.655569,86.094174 c -2.117,0 -3.832,-1.134 -3.832,-2.534 v -47.744 c 0,-1.399 1.715,-2.534 3.832,-2.534 2.113,0 3.832,1.135 3.832,2.534 v 47.744 c 0,1.401 -1.719,2.534 -3.832,2.534" /><path
         inkscape:connector-curvature="0"
         style="fill:#000000;stroke:#000000;stroke-width:3;stroke-miterlimit:4;stroke-opacity:1;stroke-dasharray:none"
         id="path130"
         d="m 82.085569,44.242174 c 2.293,0 4.148,-1.857 4.148,-4.146 0,-2.292 -1.855,-4.149 -4.148,-4.149 -2.289,0 -4.146,1.856 -4.146,4.149 -0.001,2.289 1.857,4.146 4.146,4.146" /></g></g></svg>